<svg width="100" height="100" viewBox="0 0 100 100" xmlns="http://www.w3.org/2000/svg">
<path d="M74.0953 76.5684C73.0168 76.5684 72.1422 75.6938 72.1422 74.6152V36.7256C72.1422 35.6471 73.0168 34.7725 74.0953 34.7725C75.1739 34.7725 76.0485 35.6471 76.0485 36.7256V74.6152C76.0485 75.6938 75.174 76.5684 74.0953 76.5684Z" fill="#BA9256"/>
<path d="M74.0958 85.3629C73.2795 85.3629 72.5321 84.834 72.2569 84.0668C71.9791 83.293 72.2299 82.4033 72.8713 81.8887C73.493 81.3896 74.3807 81.3201 75.0717 81.7178C75.7813 82.126 76.1696 82.9719 76.0135 83.7758C75.8376 84.683 75.0225 85.3629 74.0958 85.3629Z" fill="#BA9256"/>
<path d="M65.3633 85.3619C64.2848 85.3619 63.4102 84.4872 63.4102 83.4087V36.7256C63.4102 35.6471 64.2848 34.7725 65.3633 34.7725C66.4418 34.7725 67.3164 35.6471 67.3164 36.7256V83.4089C67.3164 84.4874 66.442 85.3619 65.3633 85.3619Z" fill="#BA9256"/>
<path d="M98.0469 28.8299H84.9084V22.4059C84.9084 21.3273 84.0338 20.4527 82.9553 20.4527H81.0006V12.5984C81.0006 11.5199 80.126 10.6453 79.0475 10.6453H71.2092V4.95722C71.2092 3.87871 70.3346 3.0041 69.2561 3.0041C68.1775 3.0041 67.3029 3.87871 67.3029 4.95722V10.6453H60.4107C59.3322 10.6453 58.4576 11.5199 58.4576 12.5984V20.4527H56.5029C55.4244 20.4527 54.5498 21.3273 54.5498 22.4059V38.6815H41.5904C35.8693 38.6815 31.0139 34.9049 29.3857 29.7139C30.5125 29.8457 31.9672 29.9621 33.5914 29.9621C37.9961 29.9621 43.6461 29.1059 47.3729 25.3793C54.1203 18.6316 51.458 5.58066 51.3412 5.02851C51.1814 4.27207 50.5902 3.68105 49.8338 3.52109C49.2814 3.40429 36.2305 0.742182 29.483 7.48945C28.3668 8.60566 27.5082 9.89433 26.8529 11.2705C26.1977 9.89433 25.3391 8.60566 24.2229 7.48945C17.4754 0.741791 4.42402 3.4041 3.87207 3.52109C3.11563 3.68085 2.52461 4.27207 2.36465 5.02851C2.24805 5.58066 -0.414258 18.6316 6.3332 25.3793C10.0604 29.1065 15.7102 29.9623 20.115 29.9623C22.2658 29.9623 24.1201 29.7582 25.3082 29.5844C26.8391 36.3432 32.4826 41.5592 39.4588 42.4522V56.8205H22.0703C20.9918 56.8205 20.1172 57.6951 20.1172 58.7737V93.1881H1.95312C0.874414 93.1881 0 94.0627 0 95.1412C0 96.2198 0.874414 97.0944 1.95312 97.0944H98.0469C99.1254 97.0944 100 96.2198 100 95.1412V30.783C100 29.7043 99.1254 28.8299 98.0469 28.8299ZM32.2453 10.2518C36.4439 6.05332 44.5971 6.69707 47.7445 7.1332C48.3045 11.0469 48.4867 18.7412 44.6105 22.617C41.2826 25.9447 35.4705 26.2305 31.6359 25.9887L36.8191 20.8055C37.5818 20.0428 37.5818 18.8061 36.8191 18.0432C36.0563 17.2807 34.8199 17.2807 34.0568 18.0432L28.8635 23.2365C28.6219 19.1178 29.083 13.4141 32.2453 10.2518ZM9.09531 22.617C4.89687 18.4187 5.54023 10.2654 5.97676 7.11777C9.89023 6.55781 17.585 6.37558 21.4605 10.2518C24.7883 13.5793 25.0742 19.3916 24.8324 23.2268L19.6492 18.0434C18.8863 17.2809 17.65 17.2809 16.8869 18.0434C16.1242 18.8061 16.1242 20.0428 16.8869 20.8057L22.0801 25.9988C17.9615 26.2404 12.2574 25.7795 9.09531 22.617ZM62.3641 14.5516H77.0945V20.4527H62.3641V14.5516ZM24.0234 60.7268H39.4586V93.1881H24.0234V60.7268ZM43.3648 93.1883V42.5877H54.55V93.1881H43.3648V93.1883ZM58.4562 24.359H81.0023V93.1881H58.4562V24.359ZM96.0938 93.1883H84.9084V32.7361H96.0938V93.1883Z" fill="#BA9256"/>
</svg>
