<svg width="100" height="100" viewBox="0 0 100 100" fill="none" xmlns="http://www.w3.org/2000/svg">
<g clip-path="url(#clip0_1182_991)">
<path d="M34.144 53.7334C34.9531 53.7334 35.6088 53.0777 35.6088 52.2686C35.6088 51.4594 34.9531 50.8037 34.144 50.8037H27.5315V46.4107C27.5315 45.6016 26.8758 44.9459 26.0666 44.9459C25.2575 44.9459 24.6018 45.6016 24.6018 46.4107V50.8037H19.4539V33.8869C19.4539 32.809 18.6166 31.9648 17.5477 31.9648H2.527C1.31724 31.9648 0.369385 33.0123 0.369385 34.3494V97.6156C0.369385 98.9527 1.31724 100 2.527 100H33.4512C34.6408 100 35.6088 98.9305 35.6088 97.6156V82.4275C35.6088 81.6184 34.9531 80.9627 34.144 80.9627C33.3348 80.9627 32.6791 81.6184 32.6791 82.4275V97.0705H3.29927V34.8945H16.5245V38.5809H11.5764C10.7672 38.5809 10.1116 39.2365 10.1116 40.0457C10.1116 40.8549 10.7672 41.5105 11.5764 41.5105H16.5243V46.8297H12.0848C11.2756 46.8297 10.62 47.4854 10.62 48.2945C10.62 49.1037 11.2756 49.7594 12.0848 49.7594H16.5243V62.7025C16.5243 63.5117 17.1799 64.1674 17.9891 64.1674H32.6791V75.6166C32.6791 76.4258 33.3348 77.0814 34.144 77.0814C34.9531 77.0814 35.6088 76.4258 35.6088 75.6166V63.1596C35.6088 61.9725 34.5875 61.2377 33.6412 61.2377H27.5315V53.7334H34.144ZM24.6018 61.2377H19.4539V53.7334H24.6016V61.2377H24.6018Z" fill="#fff"/>
<path d="M84.0958 67.751V60.5176V47.2645C84.0958 47.2639 84.0958 47.2631 84.0958 47.2625V43.0387V26.776C84.0958 26.7754 84.0958 26.7746 84.0958 26.774V25.56V17.9953H86.9489C88.2802 17.9953 89.3632 16.9131 89.3632 15.5828V15.448H96.9534C97.6022 15.448 98.1975 15.2379 98.6612 14.8891C98.7452 14.8328 98.8247 14.7672 98.8981 14.6916C98.9147 14.6746 98.929 14.6562 98.9446 14.6387C99.3694 14.2096 99.6303 13.6447 99.6303 13.0246V4.9707C99.6303 3.63418 98.4296 2.54707 96.9534 2.54707H89.3634V2.4125C89.3634 1.08223 88.2803 0 86.9491 0H68.3196C66.9884 0 65.9052 1.08223 65.9052 2.4125V2.54707H63.1356H46.838C46.8362 2.54707 46.8347 2.54707 46.8329 2.54707H45.6177H24.6478C23.1687 2.54707 21.9653 3.63418 21.9653 4.9707V13.0244C21.9653 14.3607 23.1687 15.4479 24.6478 15.4479H31.6179V20.4977L26.1989 26.2572H24.8603C23.5782 26.2572 22.5353 27.2994 22.5353 28.5805V35.4305C22.5353 36.7145 23.5782 37.7592 24.8603 37.7592H41.3001C42.5852 37.7592 43.6308 36.7145 43.6308 35.4305V28.5805C43.6308 27.2994 42.5852 26.2572 41.3001 26.2572H39.9669L34.5478 20.4977V15.448H45.6181H63.1358H65.9054V15.5828C65.9054 16.9131 66.9886 17.9953 68.3198 17.9953H71.1727V25.5596V43.0385V60.5174V76.5312H66.5821C64.5516 76.5312 62.8997 78.1811 62.8997 80.209V89.7631H61.2925C58.4641 89.7631 56.163 92.0605 56.163 94.8844V97.5541C56.163 98.9027 57.2638 99.9998 58.6167 99.9998H97.1157C98.4655 99.9998 99.5635 98.9027 99.5635 97.5541V94.8844C99.5635 92.0605 97.2649 89.7631 94.4399 89.7631H92.8327V80.209C92.8327 78.1811 91.178 76.5312 89.1444 76.5312H84.0958V67.7529C84.0958 67.7523 84.0958 67.7518 84.0958 67.751ZM96.7009 5.47734V10.5164L91.5104 5.47715L96.7009 5.47734ZM89.3634 7.47578L94.5571 12.5184H89.3634V7.47578ZM24.895 12.5176V5.47676H25.7071L32.9571 12.5178L24.895 12.5176ZM40.7009 29.1871V34.8297H25.4647V29.1871H40.7009ZM35.944 26.2574H30.2214L33.0827 23.2162L35.944 26.2574ZM29.9122 5.47676H43.2247L36.5685 11.9412L29.9122 5.47676ZM45.6179 12.5184L40.1796 12.5182L46.8356 6.05391L53.4919 12.5184H45.6179ZM50.4464 5.47676H63.1356H63.7591L57.1026 11.9412L50.4464 5.47676ZM63.1356 12.5184H60.7136L65.9052 7.47656V12.5184H63.1356ZM89.1442 79.4611C89.5626 79.4611 89.9028 79.7967 89.9028 80.2092V89.7633H81.3741C80.5649 89.7633 79.9093 90.4189 79.9093 91.2281C79.9093 92.0373 80.5649 92.693 81.3741 92.693H94.4397C95.6495 92.693 96.6337 93.676 96.6337 94.8846V97.0703H59.0927V94.8846C59.0927 93.676 60.0796 92.693 61.2925 92.693H74.28C75.0891 92.693 75.7448 92.0373 75.7448 91.2281C75.7448 90.4189 75.0891 89.7633 74.28 89.7633H65.8294V80.2092C65.8294 79.8037 66.1743 79.4611 66.5821 79.4611H72.6374H82.6309H89.1442ZM80.5846 26.7748L74.1024 33.4197V25.5596V20.1297L80.5846 26.7748ZM76.1128 17.9953H81.1661V23.1756L76.1128 17.9953ZM81.1661 30.374V43.0385V43.6639L74.6837 37.0187L81.1661 30.374ZM80.5846 47.2633L74.1024 53.9084V43.0385V40.6182L80.5846 47.2633ZM81.1661 50.8627V60.5176V64.1527L74.6839 57.5076L81.1661 50.8627ZM80.5846 67.7521L74.1024 74.3971V61.107L80.5846 67.7521ZM81.1661 71.3514V76.5314H76.1128L81.1661 71.3514ZM82.6309 15.0656H72.6567C72.6557 15.0656 72.6546 15.0656 72.6534 15.0656H72.6374H68.8347V2.92969H86.4335V15.0656H82.6309Z" fill="#fff"/>
<path d="M29.1682 70.7334C29.1682 69.526 28.1877 68.5439 26.9828 68.5439H8.9957C7.7875 68.5439 6.80469 69.526 6.80469 70.7334V76.7084C6.80469 77.9158 7.7875 78.8979 8.9957 78.8979H26.9828C28.1879 78.8979 29.1682 77.9158 29.1682 76.7084V70.7334ZM16.5242 75.9682H9.73438V71.4736H16.5244V75.9682H16.5242ZM26.2385 75.9682H19.4539V71.4736H26.2383V75.9682H26.2385Z" fill="#fff"/>
<path d="M26.9826 83.2754H8.9957C7.7875 83.2754 6.80469 84.2574 6.80469 85.4648V91.4398C6.80469 92.6471 7.7875 93.6291 8.9957 93.6291H26.9828C28.1879 93.6291 29.1682 92.6471 29.1682 91.4398V85.4648C29.1682 84.2574 28.1877 83.2754 26.9826 83.2754ZM16.5242 90.6994H9.73438V86.2051H16.5244V90.6994H16.5242ZM26.2385 90.6994H19.4539V86.2051H26.2383V90.6994H26.2385Z" fill="#fff"/>
</g>
<defs>
<clipPath id="clip0_1182_991">
<rect width="100" height="100" fill="white"/>
</clipPath>
</defs>
</svg>
