<svg width="100" height="100" viewBox="0 0 100 100" fill="none" xmlns="http://www.w3.org/2000/svg">
<g clip-path="url(#clip0_1182_1311)">
<path d="M89.2385 97.0647H78.8492V28.6244C78.8492 25.6965 76.4672 23.3145 73.5393 23.3145H45.9957C45.1851 23.3145 44.5279 23.9715 44.5279 24.7822C44.5279 25.593 45.1851 26.25 45.9957 26.25H73.5394C74.8486 26.25 75.9141 27.3152 75.9141 28.6246V97.0647H61.11V82.934H64.651C65.1076 82.934 65.5383 82.7215 65.816 82.359C66.0937 81.9965 66.1869 81.5254 66.0683 81.0846C65.1348 77.618 63.0519 74.4889 60.2035 72.2742C59.5637 71.7768 58.6416 71.892 58.1439 72.5321C57.6463 73.1719 57.7617 74.0942 58.4017 74.5916C60.2295 76.0127 61.6746 77.8899 62.5877 79.9987H37.4095C39.5455 75.0379 44.4765 71.7143 50 71.7143C51.2281 71.7143 52.4453 71.8766 53.6174 72.1965C54.3986 72.4098 55.2062 71.949 55.4197 71.167C55.6332 70.385 55.1722 69.5781 54.3902 69.3647C52.966 68.976 51.489 68.7789 50 68.7789C42.4906 68.7789 35.8832 73.8393 33.9318 81.0848C33.8131 81.5256 33.9062 81.9967 34.1841 82.3592C34.4619 82.7217 34.8925 82.9342 35.3492 82.9342H38.8902V97.0649H24.0863V65.2721C24.0863 64.4615 23.4293 63.8043 22.6185 63.8043C21.8078 63.8043 21.1507 64.4615 21.1507 65.2721V97.0647H10.7615C9.95093 97.0647 9.2937 97.7219 9.2937 98.5325C9.2937 99.343 9.95073 100 10.7615 100H89.2385C90.0492 100 90.7063 99.343 90.7063 98.5325C90.7063 97.7217 90.0492 97.0647 89.2385 97.0647ZM41.8256 82.9338H58.1744V97.0645H41.8256V82.9338Z" fill="#fff"/>
<path d="M41.5923 24.7822C41.5923 23.9717 40.9353 23.3145 40.1245 23.3145H26.4605C23.5325 23.3145 21.1505 25.6965 21.1505 28.6244V59.4012C21.1505 60.2118 21.8077 60.869 22.6183 60.869C23.4288 60.869 24.0861 60.2118 24.0861 59.4012V28.6244C24.0861 27.315 25.1513 26.2498 26.4607 26.2498H40.1247C40.9353 26.25 41.5923 25.5928 41.5923 24.7822Z" fill="#fff"/>
<path d="M42.9175 12.8701L42.6536 16.6348C42.5853 17.61 43.0165 18.535 43.8073 19.1096C44.2984 19.4662 44.8747 19.6494 45.4583 19.6494C45.8148 19.6494 46.1738 19.5811 46.5175 19.4422L50.0165 18.0279L53.5154 19.4422C54.4216 19.8086 55.4351 19.6842 56.2255 19.1098C57.0163 18.5354 57.4476 17.6102 57.3794 16.635L57.1156 12.8703L59.5419 9.97949C60.1705 9.23086 60.3652 8.22891 60.0632 7.29922C59.7611 6.36953 59.0146 5.67363 58.0662 5.43731L54.4038 4.52481L52.4046 1.32402C52.4046 1.32383 52.4044 1.32383 52.4044 1.32383C51.8865 0.494922 50.9937 0 50.0163 0C49.039 0 48.1464 0.494922 47.6284 1.32402L45.629 4.52481L41.9671 5.43731C41.0187 5.67363 40.2722 6.36953 39.97 7.29922C39.6679 8.22891 39.8628 9.23086 40.4911 9.97949L42.9175 12.8701ZM46.3857 7.36152C47.098 7.18399 47.7042 6.74356 48.0929 6.12109L50.0163 3.0418L51.94 6.12129C52.3288 6.74375 52.9353 7.18418 53.6472 7.36152L57.1701 8.23926L54.8363 11.0199C54.364 11.582 54.1324 12.2949 54.1839 13.0271L54.4378 16.649L51.0712 15.2883C50.731 15.1508 50.374 15.0822 50.0165 15.0822C49.6591 15.0822 49.3017 15.151 48.9613 15.2885L45.5952 16.649L45.8489 13.0273C45.9003 12.2953 45.6687 11.5824 45.1968 11.0203L42.8626 8.23945L46.3857 7.36152Z" fill="#fff"/>
<path d="M19.237 13.8144L19.023 16.8701C18.9601 17.7691 19.3576 18.6221 20.0868 19.1518C20.8158 19.6814 21.7499 19.7963 22.5859 19.4586L25.4257 18.3105L28.2658 19.4586C28.5826 19.5867 28.9136 19.6498 29.2423 19.6496C29.7802 19.6496 30.312 19.4809 30.7648 19.1518C31.4939 18.6221 31.8917 17.7689 31.8286 16.8699L31.6146 13.8143L33.5837 11.4682C34.1632 10.7779 34.3429 9.8541 34.0644 8.99687C33.7859 8.13965 33.0976 7.49785 32.223 7.27988L29.2507 6.53926L27.6279 3.94141C27.1503 3.17715 26.3273 2.7207 25.4261 2.7207C24.5247 2.7207 23.7017 3.17715 23.2242 3.9416L21.6013 6.53945L18.629 7.28008C17.7544 7.49804 17.0659 8.14004 16.7874 8.99726C16.5089 9.85449 16.6888 10.7783 17.2681 11.4684L19.237 13.8144ZM22.4441 9.35449C23.1005 9.19082 23.6593 8.78476 24.0179 8.21074L25.4257 5.95723L26.8333 8.21074C27.1917 8.78457 27.7507 9.19082 28.4077 9.35449L30.9861 9.99687L29.2777 12.0322C28.8427 12.5506 28.6292 13.2078 28.6765 13.8826L28.8622 16.5334L26.3988 15.5377C25.7712 15.284 25.08 15.284 24.4527 15.5377L21.9892 16.5336L22.1749 13.8828C22.2222 13.2076 22.0087 12.5502 21.5738 12.0322L19.8656 9.99687L22.4441 9.35449Z" fill="#fff"/>
<path d="M68.3857 13.8146L68.1716 16.8701C68.1084 17.7691 68.506 18.6223 69.2349 19.1519C69.6876 19.4809 70.2195 19.6498 70.7576 19.6498C71.0863 19.6498 71.4173 19.5869 71.7341 19.4588L74.574 18.3107L77.414 19.4588C78.2493 19.7963 79.1835 19.6818 79.9128 19.1519C80.6419 18.6223 81.0396 17.7691 80.9765 16.8701L80.7622 13.8146L82.7315 11.4684C83.311 10.7781 83.4907 9.85429 83.2122 8.99707C82.9337 8.13984 82.2454 7.49805 81.3708 7.28008L78.3986 6.53945L76.7757 3.94141C76.2982 3.17715 75.4751 2.7207 74.574 2.7207C73.6728 2.7207 72.8496 3.17695 72.372 3.94141C72.372 3.94141 72.372 3.94141 72.3718 3.94141L70.749 6.53945L67.7769 7.28008C66.9023 7.49805 66.214 8.13984 65.9355 8.99687C65.6568 9.8541 65.8367 10.7779 66.4162 11.4684L68.3857 13.8146ZM71.5925 9.35488C72.249 9.19121 72.8079 8.78496 73.1665 8.21113L74.5742 5.95742L75.9818 8.21113C76.3404 8.78496 76.8993 9.19121 77.5562 9.35488L80.1347 9.99726L78.4263 12.0326C77.9913 12.551 77.7777 13.2082 77.8251 13.883L78.0109 16.5338L75.5476 15.5383C75.2337 15.4113 74.9042 15.3478 74.5743 15.3478C74.2449 15.3478 73.9152 15.4113 73.6015 15.5381L71.138 16.5338L71.3236 13.883C71.371 13.208 71.1576 12.5508 70.7224 12.0324L69.0142 9.99707L71.5925 9.35488Z" fill="#fff"/>
<path d="M37.2599 36.8057H33.8527C33.0421 36.8057 32.3849 37.4629 32.3849 38.2734C32.3849 39.084 33.0419 39.7412 33.8527 39.7412H37.2599C38.0704 39.7412 38.7277 39.084 38.7277 38.2734C38.7277 37.4627 38.0704 36.8057 37.2599 36.8057Z" fill="#fff"/>
<path d="M46.889 36.8057H43.4816C42.671 36.8057 42.0138 37.4629 42.0138 38.2734C42.0138 39.084 42.6708 39.7412 43.4816 39.7412H46.889C47.6995 39.7412 48.3568 39.084 48.3568 38.2734C48.3568 37.4627 47.6997 36.8057 46.889 36.8057Z" fill="#fff"/>
<path d="M53.1108 39.7412H56.5181C57.3288 39.7412 57.9858 39.084 57.9858 38.2734C57.9858 37.4629 57.3288 36.8057 56.5181 36.8057H53.1108C52.3001 36.8057 51.6431 37.4629 51.6431 38.2734C51.6431 39.0842 52.3001 39.7412 53.1108 39.7412Z" fill="#fff"/>
<path d="M62.74 39.7412H66.1471C66.9579 39.7412 67.6149 39.084 67.6149 38.2734C67.6149 37.4629 66.9579 36.8057 66.1471 36.8057H62.74C61.9292 36.8057 61.2722 37.4629 61.2722 38.2734C61.2722 39.0842 61.9292 39.7412 62.74 39.7412Z" fill="#fff"/>
<path d="M37.2599 44.8262H33.8527C33.0421 44.8262 32.3849 45.4834 32.3849 46.2939C32.3849 47.1045 33.0419 47.7617 33.8527 47.7617H37.2599C38.0704 47.7617 38.7277 47.1045 38.7277 46.2939C38.7277 45.4832 38.0704 44.8262 37.2599 44.8262Z" fill="#fff"/>
<path d="M46.889 44.8262H43.4816C42.671 44.8262 42.0138 45.4834 42.0138 46.2939C42.0138 47.1045 42.6708 47.7617 43.4816 47.7617H46.889C47.6995 47.7617 48.3568 47.1045 48.3568 46.2939C48.3568 45.4832 47.6997 44.8262 46.889 44.8262Z" fill="#fff"/>
<path d="M53.1108 47.7617H56.5181C57.3288 47.7617 57.9858 47.1045 57.9858 46.2939C57.9858 45.4834 57.3288 44.8262 56.5181 44.8262H53.1108C52.3001 44.8262 51.6431 45.4834 51.6431 46.2939C51.6431 47.1047 52.3001 47.7617 53.1108 47.7617Z" fill="#fff"/>
<path d="M62.74 47.7617H66.1471C66.9579 47.7617 67.6149 47.1045 67.6149 46.2939C67.6149 45.4834 66.9579 44.8262 66.1471 44.8262H62.74C61.9292 44.8262 61.2722 45.4834 61.2722 46.2939C61.2722 47.1047 61.9292 47.7617 62.74 47.7617Z" fill="#fff"/>
<path d="M37.2599 52.8477H33.8527C33.0421 52.8477 32.3849 53.5049 32.3849 54.3154C32.3849 55.126 33.0419 55.7832 33.8527 55.7832H37.2599C38.0704 55.7832 38.7277 55.126 38.7277 54.3154C38.7277 53.5049 38.0704 52.8477 37.2599 52.8477Z" fill="#fff"/>
<path d="M46.889 52.8477H43.4816C42.671 52.8477 42.0138 53.5049 42.0138 54.3154C42.0138 55.126 42.6708 55.7832 43.4816 55.7832H46.889C47.6995 55.7832 48.3568 55.126 48.3568 54.3154C48.3568 53.5049 47.6997 52.8477 46.889 52.8477Z" fill="#fff"/>
<path d="M53.1108 55.7832H56.5181C57.3288 55.7832 57.9858 55.126 57.9858 54.3154C57.9858 53.5049 57.3288 52.8477 56.5181 52.8477H53.1108C52.3001 52.8477 51.6431 53.5049 51.6431 54.3154C51.6431 55.126 52.3001 55.7832 53.1108 55.7832Z" fill="#fff"/>
<path d="M62.74 55.7832H66.1471C66.9579 55.7832 67.6149 55.126 67.6149 54.3154C67.6149 53.5049 66.9579 52.8477 66.1471 52.8477H62.74C61.9292 52.8477 61.2722 53.5049 61.2722 54.3154C61.2722 55.126 61.9292 55.7832 62.74 55.7832Z" fill="#fff"/>
<path d="M37.2599 60.8691H33.8527C33.0421 60.8691 32.3849 61.5264 32.3849 62.3369C32.3849 63.1475 33.0419 63.8047 33.8527 63.8047H37.2599C38.0704 63.8047 38.7277 63.1475 38.7277 62.3369C38.7277 61.5262 38.0704 60.8691 37.2599 60.8691Z" fill="#fff"/>
<path d="M46.889 60.8691H43.4816C42.671 60.8691 42.0138 61.5264 42.0138 62.3369C42.0138 63.1475 42.6708 63.8047 43.4816 63.8047H46.889C47.6995 63.8047 48.3568 63.1475 48.3568 62.3369C48.3568 61.5262 47.6997 60.8691 46.889 60.8691Z" fill="#fff"/>
<path d="M53.1108 63.8047H56.5181C57.3288 63.8047 57.9858 63.1475 57.9858 62.3369C57.9858 61.5264 57.3288 60.8691 56.5181 60.8691H53.1108C52.3001 60.8691 51.6431 61.5264 51.6431 62.3369C51.6431 63.1477 52.3001 63.8047 53.1108 63.8047Z" fill="#fff"/>
<path d="M62.74 63.8047H66.1471C66.9579 63.8047 67.6149 63.1475 67.6149 62.3369C67.6149 61.5264 66.9579 60.8691 66.1471 60.8691H62.74C61.9292 60.8691 61.2722 61.5264 61.2722 62.3369C61.2722 63.1477 61.9292 63.8047 62.74 63.8047Z" fill="#fff"/>
</g>
<defs>
<clipPath id="clip0_1182_1311">
<rect width="100" height="100" fill="#fff"/>
</clipPath>
</defs>
</svg>
